<svg width="22" height="22" viewBox="0 0 22 22" fill="none" xmlns="http://www.w3.org/2000/svg">
<path d="M20.1668 14.6668V3.66677C20.1668 3.18054 19.9736 2.71422 19.6298 2.37041C19.286 2.02659 18.8197 1.83344 18.3335 1.83344H7.33347C6.84723 1.83344 6.38092 2.02659 6.0371 2.37041C5.69329 2.71422 5.50013 3.18054 5.50013 3.66677V14.6668C5.50013 15.153 5.69329 15.6193 6.0371 15.9631C6.38092 16.3069 6.84723 16.5001 7.33347 16.5001H18.3335C18.8197 16.5001 19.286 16.3069 19.6298 15.9631C19.9736 15.6193 20.1668 15.153 20.1668 14.6668ZM10.0835 11.0001L11.9443 13.4843L14.6668 10.0834L18.3335 14.6668H7.33347L10.0835 11.0001ZM1.83347 5.5001V18.3334C1.83347 18.8197 2.02662 19.286 2.37044 19.6298C2.71425 19.9736 3.18057 20.1668 3.6668 20.1668H16.5001V18.3334H3.6668V5.5001" fill="#F2D8D5"/>
<rect x="5.35135" y="1.78381" width="14.8649" height="14.8649" rx="3" fill="#F2D8D5"/>
</svg>
