<svg width="20" height="20" viewBox="0 0 20 20" fill="none" xmlns="http://www.w3.org/2000/svg">
<path d="M19.1668 13.6668V2.66677C19.1668 2.18054 18.9736 1.71422 18.6298 1.37041C18.286 1.02659 17.8197 0.833435 17.3335 0.833435H6.33347C5.84724 0.833435 5.38092 1.02659 5.0371 1.37041C4.69329 1.71422 4.50013 2.18054 4.50013 2.66677V13.6668C4.50013 14.153 4.69329 14.6193 5.0371 14.9631C5.38092 15.3069 5.84724 15.5001 6.33347 15.5001H17.3335C17.8197 15.5001 18.286 15.3069 18.6298 14.9631C18.9736 14.6193 19.1668 14.153 19.1668 13.6668ZM9.08347 10.0001L10.9443 12.4843L13.6668 9.08344L17.3335 13.6668H6.33347L9.08347 10.0001ZM0.833466 4.5001V17.3334C0.833466 17.8197 1.02662 18.286 1.37044 18.6298C1.71425 18.9736 2.18057 19.1668 2.6668 19.1668H15.5001V17.3334H2.6668V4.5001" fill="#F2D8D5"/>
</svg>
